<svg width="32" height="32" viewBox="0 0 32 32" xmlns="http://www.w3.org/2000/svg" xmlns:xlink="http://www.w3.org/1999/xlink"><title>无未读@2x</title><g id="无未读" stroke="none" stroke-width="1" fill="none" fill-rule="evenodd"><path id="矩形" fill-opacity="0" fill="#fff" d="M0 0h32v32H0z"/><path d="M27.0859285 24.9182199C28.863678 23.6093857 30 21.6729726 30 19.5218533 30 15.5784986 26.2239335 12.3822467 21.5662114 12.3822467 16.9084893 12.3822467 13.13273 15.5784986 13.13273 19.5218533 13.13273 23.4648959 16.9084893 26.6611477 21.5662114 26.6611477 22.5286598 26.6611477 23.4576238 26.5216511 24.3190044 26.2698082 24.3973397 26.2454665 24.4805901 26.2323594 24.5672197 26.2323594 24.7288053 26.2323594 24.8762599 26.2822911 25.0148058 26.3640542L26.8610602 27.4466355C26.9126694 27.4769066 26.9624353 27.5 27.0235675 27.5 27.1790092 27.5 27.3046528 27.3720501 27.3046528 27.2141411 27.3046528 27.1439247 27.2770051 27.0730841 27.2594949 27.0056763 27.248743 26.9654189 27.0211099 26.1034732 26.8794921 25.5654594 26.8632106 25.5052293 26.8500012 25.4468716 26.8500012 25.3835208 26.8500012 25.1915959 26.9430819 25.0218282 27.0859285 24.9182199M18.7547437 18.379666C18.1342056 18.379666 17.6307096 17.8681783 17.6307096 17.2371667 17.6307096 16.606155 18.1342056 16.0946674 18.7547437 16.0946674 19.3762034 16.0946674 19.8793922 16.606155 19.8793922 17.2371667 19.8793922 17.8681783 19.3762034 18.379666 18.7547437 18.379666M12.1203006 4.5C17.1693918 4.5 21.3537232 7.63009239 22.1158791 11.72293 21.9337113 11.7138799 21.750929 11.7079505 21.5663036 11.7079505 16.4686752 11.7079505 12.3362601 15.2066012 12.3362601 19.5216348 12.3362601 20.2493891 12.4563742 20.9534258 12.6763273 21.6215742 12.492009 21.6300001 12.3070764 21.6349933 12.1203006 21.6349933 10.9655468 21.6349933 9.85072855 21.467098 8.81701038 21.1653234 8.72270088 21.1359885 8.62286183 21.1200728 8.51933641 21.1200728 8.32518786 21.1200728 8.14885673 21.1803029 7.98204872 21.2779818v0L5.76654339 22.5774538C5.70479677 22.6136543 5.64458615 22.6414288 5.57147324 22.6414288 5.38500461 22.6414288 5.23417085 22.4882009 5.23417085 22.2987726 5.23417085 22.2138887 5.26734813 22.129317 5.28854473 22.048178v0L5.30670713 21.9794161C5.37236721 21.7306957 5.59692964 20.8795477 5.7444252 20.3202297 5.76377861 20.2475166 5.78006006 20.1776123 5.78006006 20.1017785 5.78006006 19.8711566 5.66824032 19.667685 5.49682435 19.5431678 3.36303344 17.9728164 2 15.6491207 2 13.0676527 2 8.33600156 6.53084972 4.5 12.1203006 4.5zM24.3773719 16.0946674C24.9985244 16.0946674 25.5017132 16.606155 25.5017132 17.2371667 25.5017132 17.8681783 24.9985244 18.379666 24.3773719 18.379666 23.7565266 18.379666 23.2530306 17.8681783 23.2530306 17.2371667 23.2530306 16.606155 23.7565266 16.0946674 24.3773719 16.0946674zM8.74666225 8.95515443C8.00170933 8.95515443 7.39745268 9.56868999 7.39745268 10.3257791 7.39745268 11.0831803 8.00170933 11.6967159 8.74666225 11.6967159 9.49222956 11.6967159 10.096179 11.0831803 10.096179 10.3257791 10.096179 9.56868999 9.49222956 8.95515443 8.74666225 8.95515443zm6.74727665.0C14.7483716 8.95515443 14.1444221 9.56868999 14.1444221 10.3257791 14.1444221 11.0831803 14.7483716 11.6967159 15.4939389 11.6967159 16.239199 11.6967159 16.8434557 11.0831803 16.8434557 10.3257791 16.8434557 9.56868999 16.239199 8.95515443 15.4939389 8.95515443z" id="Combined-Shape" fill="#fff"/></g></svg>